# xmcd CD database file
#
# Track frame offsets:
#	183
#	19573
#	41690
#	51495
#	57408
#	80145
#	97258
#	134883
#	154643
#
# Disc length: 2232 seconds
#
# Revision: 0
# Processed by: cddbd v1.5.1PL2 Copyright (c) Steve Scherf et al.
# Submitted via: CDex 1.51
#
DISCID=8208b609
DTITLE=Jackson, Michael Gregory - Karmonic Suite
DYEAR=1978
DGENRE=Jazz
TTITLE0=When we got there
TTITLE1=Still (transitory ancestry)
TTITLE2=Something i had to tell you
TTITLE3=Karmony (love for life)
TTITLE4=Dance for your people
TTITLE5=Spirit
TTITLE6=We have the power
TTITLE7=Cooperative development
TTITLE8=Spirit (Afterthought)
EXTD=YEAR: 1978
EXTT0=
EXTT1=
EXTT2=
EXTT3=
EXTT4=
EXTT5=
EXTT6=
EXTT7=
EXTT8=
PLAYORDER=
